<svg id="Layer_1" data-name="Layer 1" xmlns="http://www.w3.org/2000/svg" viewBox="0 0 69.5 131.2"><defs><style>.cls-1{fill:#aba300;}</style></defs><title>dumf_gall</title><polyline class="cls-1" points="28.8 131.2 28.7 130.9 28.6 130.7 28.5 130.4 28.4 130.2 28.2 129.9 28.1 129.7 28 129.4 27.9 129.1 27.8 128.9 27.7 128.6 27.6 128.4 27.5 128.1 27.4 127.9 27.3 127.6 27.2 127.3 27.1 127.1 27 126.8 26.9 126.6 26.8 126.3 26.7 126.1 26.6 125.8 26.6 125.6 26.5 125.3 26.4 125 26.3 124.8 26.2 124.5 26.1 124.3 26.1 124 26 123.8 25.9 123.5 25.8 123.2 25.8 123 25.7 122.7 25.6 122.5 25.6 122.2 25.5 122 25.4 121.7 25.4 121.4 25.3 121.2 25.2 120.9 25.2 120.7 25.1 120.4 25 120.2 25 119.9 24.9 119.6 24.8 119.4 24.7 119.1 24.7 118.9 24.6 118.6 24.5 118.4 24.5 118.1 24.4 117.8 24.3 117.6 24.3 117.3 24.2 117.1 24.1 116.8 24 116.6 23.9 116.3 23.9 116.1 23.8 115.8 23.7 115.5 23.6 115.3 23.5 115 23.4 114.8 23.3 114.5 23.2 114.3 23.1 114 23 113.7 22.9 113.5 22.8 113.2 22.7 113 22.6 112.7 22.5 112.5 22.4 112.2 22.3 111.9 22.1 111.7 22 111.4 21.9 111.2 21.8 110.9 21.6 110.7 21.5 110.4 21.4 110.1 21.2 109.9 21.1 109.6 20.9 109.4 20.8 109.1 20.6 108.9 20.5 108.6 20.3 108.3 20.2 108.1 20 107.8 19.9 107.6 19.7 107.3 19.6 107.1 19.4 106.8 19.2 106.6 19.1 106.3 18.9 106 18.7 105.8 18.6 105.5 18.4 105.3 18.2 105 18 104.8 17.9 104.5 17.7 104.2 17.5 104 17.3 103.7 17.2 103.5 17 103.2 16.8 103 16.6 102.7 16.4 102.4 16.3 102.2 16.1 101.9 15.9 101.7 15.7 101.4 15.6 101.2 15.4 100.9 15.2 100.6 15 100.4 14.8 100.1 14.7 99.9 14.5 99.6 14.3 99.4 14.1 99.1 14 98.8 13.8 98.6 13.6 98.3 13.4 98.1 13.3 97.8 13.1 97.6 12.9 97.3 12.7 97.1 12.6 96.8 12.4 96.5 12.2 96.3 12 96 11.9 95.8 11.7 95.5 11.5 95.3 11.4 95 11.2 94.7 11 94.5 10.9 94.2 10.7 94 10.5 93.7 10.4 93.5 10.2 93.2 10 92.9 9.9 92.7 9.7 92.4 9.5 92.2 9.4 91.9 9.2 91.7 9 91.4 8.9 91.1 8.7 90.9 8.5 90.6 8.4 90.4 8.2 90.1 8 89.9 7.9 89.6 7.7 89.4 7.6 89.1 7.4 88.8 7.2 88.6 7.1 88.3 6.9 88.1 6.7 87.8 6.6 87.6 6.4 87.3 6.3 87 6.1 86.8 5.9 86.5 5.8 86.3 5.6 86 5.5 85.8 5.3 85.5 5.1 85.2 5 85 4.8 84.7 4.7 84.5 4.5 84.2 4.4 84 4.2 83.7 4.1 83.4 3.9 83.2 3.8 82.9 3.6 82.7 3.5 82.4 3.4 82.2 3.2 81.9 3.1 81.6 2.9 81.4 2.8 81.1 2.7 80.9 2.6 80.6 2.4 80.4 2.3 80.1 2.2 79.8 2.1 79.6 2 79.3 1.8 79.1 1.7 78.8 1.6 78.6 1.5 78.3 1.4 78.1 1.3 77.8 1.2 77.5 1.1 77.3 1 77 1 76.8 0.9 76.5 0.8 76.3 0.7 76 0.6 75.7 0.6 75.5 0.5 75.2 0.5 75 0.4 74.7 0.3 74.5 0.3 74.2 0.2 73.9 0.2 73.7 0.2 73.4 0.1 73.2 0.1 72.9 0.1 72.7 0 72.4 0 72.1 0 71.9 0 71.6 0 71.4 0 71.1 0 70.9 0 70.6 0 70.3 0 70.1 0 69.8 0 69.6 0 69.3 0.1 69.1 0.1 68.8 0.1 68.6 0.2 68.3 0.2 68 0.3 67.8 0.3 67.5 0.4 67.3 0.4 67 0.5 66.8 0.6 66.5 0.6 66.2 0.7 66 0.8 65.7 0.9 65.5 0.9 65.2 1 65 1.1 64.7 1.2 64.4 1.3 64.2 1.4 63.9 1.5 63.7 1.6 63.4 1.8 63.2 1.9 62.9 2 62.7 2.1 62.4 2.2 62.1 2.4 61.9 2.5 61.6 2.6 61.4 2.8 61.1 2.9 60.9 3 60.6 3.2 60.3 3.3 60.1 3.5 59.8 3.6 59.6 3.8 59.3 3.9 59.1 4.1 58.8 4.3 58.5 4.4 58.3 4.6 58 4.7 57.8 4.9 57.5 5.1 57.3 5.2 57 5.4 56.7 5.6 56.5 5.7 56.2 5.9 56 6.1 55.7 6.2 55.5 6.4 55.2 6.6 54.9 6.7 54.7 6.9 54.4 7.1 54.2 7.3 53.9 7.4 53.7 7.6 53.4 7.8 53.1 7.9 52.9 8.1 52.6 8.2 52.4 8.4 52.1 8.6 51.9 8.7 51.6 8.9 51.4 9 51.1 9.2 50.8 9.4 50.6 9.5 50.3 9.7 50.1 9.8 49.8 10 49.6 10.1 49.3 10.3 49 10.4 48.8 10.5 48.5 10.7 48.3 10.8 48 11 47.8 11.1 47.5 11.2 47.2 11.4 47 11.5 46.7 11.6 46.5 11.8 46.2 11.9 46 12 45.7 12.2 45.4 12.3 45.2 12.4 44.9 12.6 44.7 12.7 44.4 12.8 44.2 12.9 43.9 13.1 43.6 13.2 43.4 13.3 43.1 13.4 42.9 13.6 42.6 13.7 42.4 13.8 42.1 14 41.9 14.1 41.6 14.2 41.3 14.3 41.1 14.5 40.8 14.6 40.6 14.7 40.3 14.9 40.1 15 39.8 15.1 39.5 15.3 39.3 15.4 39 15.5 38.8 15.7 38.5 15.8 38.3 15.9 38 16.1 37.7 16.2 37.5 16.4 37.2 16.5 37 16.7 36.7 16.8 36.5 16.9 36.2 17.1 35.9 17.2 35.7 17.4 35.4 17.5 35.2 17.7 34.9 17.8 34.7 18 34.4 18.1 34.2 18.3 33.9 18.4 33.6 18.6 33.4 18.7 33.1 18.9 32.9 19 32.6 19.2 32.4 19.3 32.1 19.5 31.8 19.6 31.6 19.8 31.3 19.9 31.1 20.1 30.8 20.2 30.6 20.4 30.3 20.5 30 20.7 29.8 20.8 29.5 20.9 29.3 21.1 29 21.2 28.8 21.4 28.5 21.5 28.2 21.6 28 21.8 27.7 21.9 27.5 22 27.2 22.1 27 22.3 26.7 22.4 26.4 22.5 26.2 22.6 25.9 22.7 25.7 22.8 25.4 22.9 25.2 23 24.9 23.1 24.7 23.2 24.4 23.3 24.1 23.4 23.9 23.5 23.6 23.6 23.4 23.7 23.1 23.8 22.9 23.9 22.6 24 22.3 24.1 22.1 24.1 21.8 24.2 21.6 24.3 21.3 24.4 21.1 24.4 20.8 24.5 20.5 24.6 20.3 24.6 20 24.7 19.8 24.7 19.5 24.8 19.3 24.9 19 24.9 18.7 25 18.5 25 18.2 25.1 18 25.2 17.7 25.2 17.5 25.3 17.2 25.3 16.9 25.4 16.7 25.4 16.4 25.5 16.2 25.5 15.9 25.6 15.7 25.6 15.4 25.7 15.2 25.7 14.9 25.8 14.6 25.8 14.4 25.9 14.1 26 13.9 26 13.6 26.1 13.4 26.1 13.1 26.2 12.8 26.3 12.6 26.3 12.3 26.4 12.1 26.4 11.8 26.5 11.6 26.6 11.3 26.7 11 26.7 10.8 26.8 10.5 26.9 10.3 26.9 10 27 9.8 27.1 9.5 27.2 9.2 27.3 9 27.3 8.7 27.4 8.5 27.5 8.2 27.6 8 27.7 7.7 27.8 7.5 27.9 7.2 28 6.9 28.1 6.7 28.2 6.4 28.3 6.2 28.4 5.9 28.5 5.7 28.6 5.4 28.7 5.1 28.8 4.9 28.9 4.6 29 4.4 29.1 4.1 29.2 3.9 29.3 3.6 29.4 3.3 29.5 3.1 29.6 2.8 29.7 2.6 29.8 2.3 29.9 2.1 30 1.8 30.1 1.5 30.2 1.3 30.4 1 30.5 0.8 30.6 0.5 30.7 0.3 30.8 0 38.7 0 38.8 0.3 38.9 0.5 39 0.8 39.1 1 39.3 1.3 39.4 1.5 39.5 1.8 39.6 2.1 39.7 2.3 39.8 2.6 39.9 2.8 40 3.1 40.1 3.3 40.2 3.6 40.3 3.9 40.4 4.1 40.5 4.4 40.6 4.6 40.7 4.9 40.8 5.1 40.9 5.4 41 5.7 41.1 5.9 41.2 6.2 41.3 6.4 41.4 6.7 41.5 6.9 41.6 7.2 41.7 7.5 41.8 7.7 41.9 8 42 8.2 42.1 8.5 42.2 8.7 42.2 9 42.3 9.2 42.4 9.5 42.5 9.8 42.6 10 42.6 10.3 42.7 10.5 42.8 10.8 42.8 11 42.9 11.3 43 11.6 43.1 11.8 43.1 12.1 43.2 12.3 43.2 12.6 43.3 12.8 43.4 13.1 43.4 13.4 43.5 13.6 43.5 13.9 43.6 14.1 43.7 14.4 43.7 14.6 43.8 14.9 43.8 15.2 43.9 15.4 43.9 15.7 44 15.9 44 16.2 44.1 16.4 44.1 16.7 44.2 16.9 44.2 17.2 44.3 17.5 44.3 17.7 44.4 18 44.5 18.2 44.5 18.5 44.6 18.7 44.6 19 44.7 19.3 44.7 19.5 44.8 19.8 44.9 20 44.9 20.3 45 20.5 45.1 20.8 45.1 21.1 45.2 21.3 45.3 21.6 45.4 21.8 45.4 22.1 45.5 22.3 45.6 22.6 45.7 22.9 45.8 23.1 45.9 23.4 46 23.6 46.1 23.9 46.2 24.1 46.2 24.4 46.4 24.7 46.5 24.9 46.6 25.2 46.7 25.4 46.8 25.7 46.9 25.9 47 26.2 47.1 26.4 47.2 26.7 47.4 27 47.5 27.2 47.6 27.5 47.7 27.7 47.9 28 48 28.2 48.1 28.5 48.3 28.8 48.4 29 48.6 29.3 48.7 29.5 48.8 29.8 49 30 49.1 30.3 49.3 30.6 49.4 30.8 49.6 31.1 49.7 31.3 49.9 31.6 50 31.8 50.2 32.1 50.3 32.4 50.5 32.6 50.6 32.9 50.8 33.1 50.9 33.4 51.1 33.6 51.2 33.9 51.4 34.2 51.5 34.4 51.7 34.7 51.8 34.9 52 35.2 52.1 35.4 52.3 35.7 52.4 35.9 52.6 36.2 52.7 36.5 52.8 36.7 53 37 53.1 37.2 53.3 37.5 53.4 37.7 53.6 38 53.7 38.3 53.8 38.5 54 38.8 54.1 39 54.2 39.3 54.4 39.5 54.5 39.8 54.6 40.1 54.8 40.3 54.9 40.6 55 40.8 55.2 41.1 55.3 41.3 55.4 41.6 55.5 41.9 55.7 42.1 55.8 42.4 55.9 42.6 56.1 42.9 56.2 43.1 56.3 43.4 56.4 43.6 56.6 43.9 56.7 44.2 56.8 44.4 56.9 44.7 57.1 44.9 57.2 45.2 57.3 45.4 57.5 45.7 57.6 46 57.7 46.2 57.9 46.5 58 46.7 58.1 47 58.3 47.2 58.4 47.5 58.5 47.8 58.7 48 58.8 48.3 59 48.5 59.1 48.8 59.2 49 59.4 49.3 59.5 49.6 59.7 49.8 59.8 50.1 60 50.3 60.1 50.6 60.3 50.8 60.4 51.1 60.6 51.4 60.8 51.6 60.9 51.9 61.1 52.1 61.3 52.4 61.4 52.6 61.6 52.9 61.7 53.1 61.9 53.4 62.1 53.7 62.2 53.9 62.4 54.2 62.6 54.4 62.7 54.7 62.9 54.9 63.1 55.2 63.3 55.5 63.4 55.7 63.6 56 63.8 56.2 63.9 56.5 64.1 56.7 64.3 57 64.4 57.3 64.6 57.5 64.8 57.8 64.9 58 65.1 58.3 65.2 58.5 65.4 58.8 65.6 59.1 65.7 59.3 65.9 59.6 66 59.8 66.2 60.1 66.3 60.3 66.5 60.6 66.6 60.9 66.7 61.1 66.9 61.4 67 61.6 67.1 61.9 67.3 62.1 67.4 62.4 67.5 62.7 67.6 62.9 67.7 63.2 67.9 63.4 68 63.7 68.1 63.9 68.2 64.2 68.3 64.4 68.4 64.7 68.5 65 68.6 65.2 68.6 65.5 68.7 65.7 68.8 66 68.9 66.2 68.9 66.5 69 66.8 69.1 67 69.1 67.3 69.2 67.5 69.2 67.8 69.3 68 69.3 68.3 69.4 68.6 69.4 68.8 69.4 69.1 69.4 69.3 69.5 69.6 69.5 69.8 69.5 70.1 69.5 70.3 69.5 70.6 69.5 70.9 69.5 71.1 69.5 71.4 69.5 71.6 69.5 71.9 69.5 72.1 69.5 72.4 69.4 72.7 69.4 72.9 69.4 73.2 69.3 73.4 69.3 73.7 69.3 73.9 69.2 74.2 69.2 74.5 69.1 74.7 69 75 69 75.2 68.9 75.5 68.9 75.7 68.8 76 68.7 76.3 68.6 76.5 68.5 76.8 68.5 77 68.4 77.3 68.3 77.5 68.2 77.8 68.1 78.1 68 78.3 67.9 78.6 67.8 78.8 67.7 79.1 67.5 79.3 67.4 79.6 67.3 79.8 67.2 80.1 67.1 80.4 66.9 80.6 66.8 80.9 66.7 81.1 66.6 81.4 66.4 81.6 66.3 81.9 66.1 82.2 66 82.4 65.9 82.7 65.7 82.9 65.6 83.2 65.4 83.4 65.3 83.7 65.1 84 65 84.2 64.8 84.5 64.7 84.7 64.5 85 64.4 85.2 64.2 85.5 64 85.8 63.9 86 63.7 86.3 63.6 86.5 63.4 86.8 63.2 87 63.1 87.3 62.9 87.6 62.8 87.8 62.6 88.1 62.4 88.3 62.3 88.6 62.1 88.8 61.9 89.1 61.8 89.4 61.6 89.6 61.5 89.9 61.3 90.1 61.1 90.4 61 90.6 60.8 90.9 60.6 91.1 60.5 91.4 60.3 91.7 60.1 91.9 60 92.2 59.8 92.4 59.6 92.7 59.5 92.9 59.3 93.2 59.1 93.5 59 93.7 58.8 94 58.6 94.2 58.5 94.5 58.3 94.7 58.1 95 58 95.3 57.8 95.5 57.6 95.8 57.4 96 57.3 96.3 57.1 96.5 56.9 96.8 56.8 97.1 56.6 97.3 56.4 97.6 56.2 97.8 56.1 98.1 55.9 98.3 55.7 98.6 55.5 98.8 55.4 99.1 55.2 99.4 55 99.6 54.8 99.9 54.7 100.1 54.5 100.4 54.3 100.6 54.1 100.9 53.9 101.2 53.8 101.4 53.6 101.7 53.4 101.9 53.2 102.2 53.1 102.4 52.9 102.7 52.7 103 52.5 103.2 52.3 103.5 52.2 103.7 52 104 51.8 104.2 51.6 104.5 51.5 104.8 51.3 105 51.1 105.3 50.9 105.5 50.8 105.8 50.6 106 50.4 106.3 50.3 106.6 50.1 106.8 49.9 107.1 49.8 107.3 49.6 107.6 49.5 107.8 49.3 108.1 49.2 108.3 49 108.6 48.9 108.9 48.7 109.1 48.6 109.4 48.4 109.6 48.3 109.9 48.1 110.1 48 110.4 47.9 110.7 47.7 110.9 47.6 111.2 47.5 111.4 47.4 111.7 47.2 111.9 47.1 112.2 47 112.5 46.9 112.7 46.8 113 46.7 113.2 46.6 113.5 46.5 113.7 46.4 114 46.3 114.3 46.2 114.5 46.1 114.8 46 115 45.9 115.3 45.8 115.5 45.7 115.8 45.6 116.1 45.6 116.3 45.5 116.6 45.4 116.8 45.3 117.1 45.2 117.3 45.2 117.6 45.1 117.8 45 118.1 45 118.4 44.9 118.6 44.8 118.9 44.7 119.1 44.7 119.4 44.6 119.6 44.5 119.9 44.5 120.2 44.4 120.4 44.3 120.7 44.3 120.9 44.2 121.2 44.1 121.4 44.1 121.7 44 122 43.9 122.2 43.9 122.5 43.8 122.7 43.7 123 43.7 123.2 43.6 123.5 43.5 123.8 43.4 124 43.3 124.3 43.3 124.5 43.2 124.8 43.1 125 43 125.3 42.9 125.6 42.9 125.8 42.8 126.1 42.7 126.3 42.6 126.6 42.5 126.8 42.4 127.1 42.3 127.3 42.2 127.6 42.1 127.9 42 128.1 41.9 128.4 41.8 128.6 41.7 128.9 41.6 129.1 41.5 129.4 41.4 129.7 41.2 129.9 41.1 130.2 41 130.4 40.9 130.7 40.8 130.9 40.7 131.2 28.8 131.2"/></svg>