<svg id="Layer_1" data-name="Layer 1" xmlns="http://www.w3.org/2000/svg" viewBox="0 0 37.52 131.6"><defs><style>.cls-1{fill:#96a900;}.cls-2{fill:none;}</style></defs><title>dundee_half_3d</title><polygon class="cls-1" points="34.7 117.5 34.7 117.2 34.7 117 34.7 116.7 34.6 116.5 34.6 116.2 34.5 115.9 34.5 115.7 34.4 115.4 34.4 115.2 34.3 114.9 34.3 114.7 34.2 114.4 34.1 114.1 34 113.9 34 113.6 33.9 113.4 33.8 113.1 33.7 112.9 33.6 112.6 33.5 112.3 33.4 112.1 33.3 111.8 33.2 111.6 33.1 111.3 33 111.1 32.9 110.8 32.8 110.5 32.7 110.3 32.6 110 32.5 109.8 32.3 109.5 32.2 109.3 32.1 109 32 108.7 31.8 108.5 31.7 108.2 31.6 108 31.5 107.7 31.3 107.5 31.2 107.2 31.1 107 30.9 106.7 30.8 106.4 30.6 106.2 30.5 105.9 30.4 105.7 30.2 105.4 30.1 105.2 29.9 104.9 29.8 104.6 29.7 104.4 29.5 104.1 29.4 103.9 29.2 103.6 29.1 103.4 28.9 103.1 28.8 102.8 28.6 102.6 28.5 102.3 28.3 102.1 28.2 101.8 28 101.6 27.9 101.3 27.7 101 27.6 100.8 27.4 100.5 27.3 100.3 27.1 100 27 99.8 26.8 99.5 26.7 99.2 26.5 99 26.3 98.7 26.2 98.5 26 98.2 25.9 98 25.7 97.7 25.6 97.5 25.4 97.2 25.3 96.9 25.1 96.7 25 96.4 24.8 96.2 24.6 95.9 24.5 95.7 24.3 95.4 24.2 95.1 24 94.9 23.9 94.6 23.7 94.4 23.6 94.1 23.4 93.9 23.3 93.6 23.1 93.3 22.9 93.1 22.8 92.8 22.6 92.6 22.5 92.3 22.3 92.1 22.2 91.8 22 91.5 21.9 91.3 21.7 91 21.6 90.8 21.4 90.5 21.3 90.3 21.1 90 21 89.8 20.8 89.5 20.7 89.2 20.6 89 20.4 88.7 20.3 88.5 20.1 88.2 20 88 19.8 87.7 19.7 87.4 19.6 87.2 19.4 86.9 19.3 86.7 19.2 86.4 19 86.2 18.9 85.9 18.8 85.6 18.6 85.4 18.5 85.1 18.4 84.9 18.2 84.6 18.1 84.4 18 84.1 17.9 83.8 17.8 83.6 17.6 83.3 17.5 83.1 17.4 82.8 17.3 82.6 17.2 82.3 17.1 82 17 81.8 16.9 81.5 16.8 81.3 16.7 81 16.5 80.8 16.4 80.5 16.3 80.2 16.3 80 16.2 79.7 16.1 79.5 16 79.2 15.9 79 15.8 78.7 15.7 78.5 15.6 78.2 15.6 77.9 15.5 77.7 15.4 77.4 15.3 77.2 15.3 76.9 15.2 76.7 15.1 76.4 15.1 76.1 15 75.9 15 75.6 14.9 75.4 14.8 75.1 14.8 74.9 14.7 74.6 14.7 74.3 14.6 74.1 14.6 73.8 14.5 73.6 14.5 73.3 14.5 73.1 14.4 72.8 14.4 72.5 14.4 72.3 14.3 72 14.3 71.8 14.3 71.5 14.2 71.3 14.2 71 14.2 70.7 14.2 70.5 14.1 70.2 14.1 70 14.1 69.7 14.1 69.5 14.1 69.2 14.1 69 14.1 68.7 14.1 68.4 14 68.2 14 67.9 14 67.7 14 67.4 14 67.2 14 66.9 14 66.6 14 66.4 14 66.1 14 65.9 14.1 65.6 14.1 65.4 14.1 65.1 14.1 64.8 14.1 64.6 14.1 64.3 14.1 64.1 14.1 63.8 14.1 63.6 14.2 63.3 14.2 63.1 14.2 62.8 14.2 62.5 14.2 62.3 14.3 62 14.3 61.8 14.3 61.5 14.3 61.3 14.3 61 14.4 60.7 14.4 60.5 14.4 60.2 14.5 60 14.5 59.7 14.5 59.5 14.5 59.2 14.6 58.9 14.6 58.7 14.6 58.4 14.7 58.2 14.7 57.9 14.7 57.7 14.7 57.4 14.8 57.1 14.8 56.9 14.8 56.6 14.9 56.4 14.9 56.1 15 55.9 15 55.6 15 55.3 15.1 55.1 15.1 54.8 15.1 54.6 15.2 54.3 15.2 54.1 15.2 53.8 15.3 53.5 15.3 53.3 15.4 53 15.4 52.8 15.4 52.5 15.5 52.3 15.5 52 15.6 51.8 15.6 51.5 15.6 51.2 15.7 51 15.7 50.7 15.8 50.5 15.8 50.2 15.8 50 15.9 49.7 15.9 49.4 16 49.2 16 48.9 16.1 48.7 16.1 48.4 16.1 48.2 16.2 47.9 16.2 47.6 16.3 47.4 16.3 47.1 16.3 46.9 16.4 46.6 16.4 46.4 16.5 46.1 16.5 45.8 16.6 45.6 16.6 45.3 16.7 45.1 16.7 44.8 16.7 44.6 16.8 44.3 16.8 44 16.9 43.8 16.9 43.5 16.9 43.3 17 43 17 42.8 17.1 42.5 17.1 42.3 17.1 42 17.2 41.7 17.2 41.5 17.3 41.2 17.3 41 17.3 40.7 17.4 40.5 17.4 40.2 17.5 39.9 17.5 39.7 17.5 39.4 17.6 39.2 17.6 38.9 17.6 38.7 17.7 38.4 17.7 38.1 17.7 37.9 17.8 37.6 17.8 37.4 17.8 37.1 17.9 36.9 17.9 36.6 17.9 36.3 18 36.1 18 35.8 18 35.6 18 35.3 18.1 35.1 18.1 34.8 18.1 34.6 18.1 34.3 18.2 34 18.2 33.8 18.2 33.5 18.2 33.3 18.3 33 18.3 32.8 18.3 32.5 18.3 32.2 18.3 32 18.4 31.7 18.4 31.5 18.4 31.2 18.4 31 18.4 30.7 18.4 30.4 18.4 30.2 18.4 29.9 18.5 29.7 18.5 29.4 18.5 29.2 18.5 28.9 18.5 28.6 18.5 28.4 18.5 28.1 18.5 27.9 18.5 27.6 18.5 27.4 18.5 27.1 18.5 26.8 18.5 26.6 18.5 26.3 18.5 26.1 18.5 25.8 18.5 25.6 18.4 25.3 18.4 25.1 18.4 24.8 18.4 24.5 18.4 24.3 18.4 24 18.4 23.8 18.3 23.5 18.3 23.3 18.3 23 18.3 22.7 18.3 22.5 18.2 22.2 18.2 22 18.2 21.7 18.1 21.5 18.1 21.2 18.1 20.9 18.1 20.7 18 20.4 18 20.2 17.9 19.9 17.9 19.7 17.9 19.4 17.8 19.1 17.8 18.9 17.7 18.6 17.7 18.4 17.6 18.1 17.6 17.9 17.5 17.6 17.5 17.3 17.4 17.1 17.4 16.8 17.3 16.6 17.2 16.3 17.2 16.1 17.1 15.8 17.1 15.6 17 15.3 16.9 15 16.8 14.8 16.8 14.5 16.7 14.3 16.6 14 16.5 13.8 16.5 13.5 16.4 13.2 16.3 13 16.2 12.7 16.1 12.5 16 12.2 16 12 15.9 11.7 15.8 11.4 15.7 11.2 15.6 10.9 15.5 10.7 15.4 10.4 15.3 10.2 15.2 9.9 15.1 9.6 15 9.4 14.9 9.1 14.8 8.9 14.7 8.6 14.5 8.4 14.4 8.1 14.3 7.9 14.2 7.6 14.1 7.3 14 7.1 13.8 6.8 13.7 6.6 13.6 6.3 13.5 6.1 13.3 5.8 13.2 5.5 13.1 5.3 13 5 12.8 4.8 12.7 4.5 12.6 4.3 12.4 4 12.3 3.7 12.2 3.5 12 3.2 11.9 3 11.8 2.7 11.6 2.5 11.5 2.2 11.4 1.9 11.2 1.7 11.1 1.4 10.9 1.2 10.8 0.9 10.7 0.7 10.5 0.4 0 0.4 0 131.6 27.6 131.6 27.9 131.3 28.2 131.1 28.4 130.8 28.7 130.6 28.9 130.3 29.2 130.1 29.4 129.8 29.7 129.5 29.9 129.3 30.1 129 30.4 128.8 30.6 128.5 30.8 128.3 31 128 31.2 127.7 31.4 127.5 31.6 127.2 31.8 127 32 126.7 32.2 126.5 32.3 126.2 32.5 126 32.7 125.7 32.8 125.4 33 125.2 33.1 124.9 33.2 124.7 33.4 124.4 33.5 124.2 33.6 123.9 33.7 123.6 33.8 123.4 33.9 123.1 34 122.9 34.1 122.6 34.2 122.4 34.3 122.1 34.4 121.8 34.4 121.6 34.5 121.3 34.5 121.1 34.6 120.8 34.6 120.6 34.7 120.3 34.7 120 34.7 119.8 34.7 119.5 34.8 119.3 34.8 119 34.8 118.8 34.8 118.5 34.8 118.2 34.8 118 34.8 117.7 34.7 117.5"/><line class="cls-2" x1="10.52" y1="3" x2="10.52" y2="12"/><line class="cls-2" x1="19.52" y1="3" x2="10.52" y2="21"/><line class="cls-2" x1="19.52" y1="21" x2="37.52" y2="48"/><line class="cls-2" x1="10.52" x2="10.52" y2="23"/></svg>