<svg id="Layer_1" data-name="Layer 1" xmlns="http://www.w3.org/2000/svg" viewBox="0 0 69.6 131.2"><defs><style>.cls-1{fill:#f8766d;}</style></defs><title>aberdeen</title><polyline class="cls-1" points="30.1 131.2 30 130.9 29.8 130.7 29.7 130.4 29.6 130.2 29.4 129.9 29.3 129.7 29.2 129.4 29 129.1 28.9 128.9 28.7 128.6 28.6 128.4 28.4 128.1 28.3 127.9 28.1 127.6 28 127.3 27.8 127.1 27.7 126.8 27.5 126.6 27.4 126.3 27.2 126.1 27 125.8 26.9 125.6 26.7 125.3 26.5 125 26.4 124.8 26.2 124.5 26 124.3 25.9 124 25.7 123.8 25.5 123.5 25.3 123.2 25.1 123 25 122.7 24.8 122.5 24.6 122.2 24.4 122 24.2 121.7 24.1 121.4 23.9 121.2 23.7 120.9 23.5 120.7 23.3 120.4 23.1 120.2 23 119.9 22.8 119.6 22.6 119.4 22.4 119.1 22.2 118.9 22 118.6 21.9 118.4 21.7 118.1 21.5 117.8 21.3 117.6 21.1 117.3 20.9 117.1 20.8 116.8 20.6 116.6 20.4 116.3 20.2 116.1 20 115.8 19.9 115.5 19.7 115.3 19.5 115 19.3 114.8 19.2 114.5 19 114.3 18.8 114 18.7 113.7 18.5 113.5 18.3 113.2 18.2 113 18 112.7 17.8 112.5 17.7 112.2 17.5 111.9 17.4 111.7 17.2 111.4 17.1 111.2 16.9 110.9 16.8 110.7 16.6 110.4 16.5 110.1 16.4 109.9 16.2 109.6 16.1 109.4 15.9 109.1 15.8 108.9 15.7 108.6 15.6 108.3 15.4 108.1 15.3 107.8 15.2 107.6 15.1 107.3 15 107.1 14.8 106.8 14.7 106.6 14.6 106.3 14.5 106 14.4 105.8 14.3 105.5 14.2 105.3 14.1 105 14 104.8 13.9 104.5 13.8 104.2 13.7 104 13.7 103.7 13.6 103.5 13.5 103.2 13.4 103 13.3 102.7 13.3 102.4 13.2 102.2 13.1 101.9 13.1 101.7 13 101.4 12.9 101.2 12.9 100.9 12.8 100.6 12.7 100.4 12.7 100.1 12.6 99.9 12.6 99.6 12.5 99.4 12.5 99.1 12.4 98.8 12.4 98.6 12.3 98.3 12.3 98.1 12.2 97.8 12.2 97.6 12.1 97.3 12.1 97.1 12.1 96.8 12 96.5 12 96.3 12 96 11.9 95.8 11.9 95.5 11.9 95.3 11.9 95 11.8 94.7 11.8 94.5 11.8 94.2 11.8 94 11.8 93.7 11.7 93.5 11.7 93.2 11.7 92.9 11.7 92.7 11.7 92.4 11.7 92.2 11.7 91.9 11.7 91.7 11.7 91.4 11.7 91.1 11.7 90.9 11.7 90.6 11.7 90.4 11.7 90.1 11.7 89.9 11.7 89.6 11.7 89.4 11.7 89.1 11.8 88.8 11.8 88.6 11.8 88.3 11.8 88.1 11.8 87.8 11.9 87.6 11.9 87.3 11.9 87 12 86.8 12 86.5 12 86.3 12.1 86 12.1 85.8 12.1 85.5 12.2 85.2 12.2 85 12.3 84.7 12.3 84.5 12.4 84.2 12.4 84 12.4 83.7 12.5 83.4 12.6 83.2 12.6 82.9 12.7 82.7 12.7 82.4 12.8 82.2 12.8 81.9 12.9 81.6 13 81.4 13 81.1 13.1 80.9 13.2 80.6 13.2 80.4 13.3 80.1 13.4 79.8 13.4 79.6 13.5 79.3 13.6 79.1 13.7 78.8 13.7 78.6 13.8 78.3 13.9 78.1 14 77.8 14 77.5 14.1 77.3 14.2 77 14.3 76.8 14.4 76.5 14.4 76.3 14.5 76 14.6 75.7 14.7 75.5 14.7 75.2 14.8 75 14.9 74.7 15 74.5 15.1 74.2 15.1 73.9 15.2 73.7 15.3 73.4 15.4 73.2 15.4 72.9 15.5 72.7 15.6 72.4 15.6 72.1 15.7 71.9 15.8 71.6 15.9 71.4 15.9 71.1 16 70.9 16.1 70.6 16.1 70.3 16.2 70.1 16.3 69.8 16.3 69.6 16.4 69.3 16.4 69.1 16.5 68.8 16.5 68.6 16.6 68.3 16.7 68 16.7 67.8 16.8 67.5 16.8 67.3 16.9 67 16.9 66.8 17 66.5 17 66.2 17.1 66 17.1 65.7 17.2 65.5 17.2 65.2 17.2 65 17.3 64.7 17.3 64.4 17.4 64.2 17.4 63.9 17.4 63.7 17.5 63.4 17.5 63.2 17.5 62.9 17.6 62.7 17.6 62.4 17.6 62.1 17.7 61.9 17.7 61.6 17.7 61.4 17.7 61.1 17.8 60.9 17.8 60.6 17.8 60.3 17.9 60.1 17.9 59.8 17.9 59.6 17.9 59.3 17.9 59.1 18 58.8 18 58.5 18 58.3 18 58 18 57.8 18.1 57.5 18.1 57.3 18.1 57 18.1 56.7 18.1 56.5 18.1 56.2 18.2 56 18.2 55.7 18.2 55.5 18.2 55.2 18.2 54.9 18.2 54.7 18.2 54.4 18.2 54.2 18.2 53.9 18.3 53.7 18.3 53.4 18.3 53.1 18.3 52.9 18.3 52.6 18.3 52.4 18.3 52.1 18.3 51.9 18.3 51.6 18.3 51.4 18.3 51.1 18.3 50.8 18.3 50.6 18.3 50.3 18.3 50.1 18.3 49.8 18.3 49.6 18.3 49.3 18.3 49 18.3 48.8 18.3 48.5 18.2 48.3 18.2 48 18.2 47.8 18.2 47.5 18.2 47.2 18.2 47 18.2 46.7 18.1 46.5 18.1 46.2 18.1 46 18.1 45.7 18.1 45.4 18 45.2 18 44.9 18 44.7 17.9 44.4 17.9 44.2 17.9 43.9 17.8 43.6 17.8 43.4 17.8 43.1 17.7 42.9 17.7 42.6 17.6 42.4 17.6 42.1 17.6 41.9 17.5 41.6 17.5 41.3 17.4 41.1 17.3 40.8 17.3 40.6 17.2 40.3 17.2 40.1 17.1 39.8 17.1 39.5 17 39.3 16.9 39 16.9 38.8 16.8 38.5 16.7 38.3 16.6 38 16.6 37.7 16.5 37.5 16.4 37.2 16.3 37 16.2 36.7 16.2 36.5 16.1 36.2 16 35.9 15.9 35.7 15.8 35.4 15.7 35.2 15.6 34.9 15.5 34.7 15.4 34.4 15.3 34.2 15.2 33.9 15.1 33.6 15 33.4 14.9 33.1 14.7 32.9 14.6 32.6 14.5 32.4 14.4 32.1 14.3 31.8 14.1 31.6 14 31.3 13.9 31.1 13.8 30.8 13.6 30.6 13.5 30.3 13.3 30 13.2 29.8 13.1 29.5 12.9 29.3 12.8 29 12.6 28.8 12.5 28.5 12.3 28.2 12.2 28 12 27.7 11.8 27.5 11.7 27.2 11.5 27 11.3 26.7 11.2 26.4 11 26.2 10.8 25.9 10.7 25.7 10.5 25.4 10.3 25.2 10.1 24.9 9.9 24.7 9.8 24.4 9.6 24.1 9.4 23.9 9.2 23.6 9 23.4 8.8 23.1 8.6 22.9 8.4 22.6 8.2 22.3 8 22.1 7.8 21.8 7.6 21.6 7.5 21.3 7.3 21.1 7.1 20.8 6.9 20.5 6.6 20.3 6.5 20 6.3 19.8 6 19.5 5.8 19.3 5.6 19 5.4 18.7 5.3 18.5 5.1 18.2 4.9 18 4.7 17.7 4.5 17.5 4.3 17.2 4.1 16.9 3.9 16.7 3.7 16.4 3.5 16.2 3.3 15.9 3.2 15.7 3 15.4 2.8 15.2 2.6 14.9 2.5 14.6 2.3 14.4 2.2 14.1 2 13.9 1.8 13.6 1.7 13.4 1.6 13.1 1.4 12.8 1.3 12.6 1.2 12.3 1 12.1 0.9 11.8 0.8 11.6 0.7 11.3 0.6 11 0.5 10.8 0.4 10.5 0.4 10.3 0.3 10 0.2 9.8 0.2 9.5 0.1 9.2 0.1 9 0.1 8.7 0 8.5 0 8.2 0 8 0 7.7 0 7.5 0 7.2 0.1 6.9 0.1 6.7 0.2 6.4 0.2 6.2 0.3 5.9 0.4 5.7 0.4 5.4 0.5 5.1 0.6 4.9 0.7 4.6 0.9 4.4 1 4.1 1.1 3.9 1.3 3.6 1.4 3.3 1.6 3.1 1.8 2.8 2 2.6 2.2 2.3 2.4 2.1 2.6 1.8 2.8 1.5 3 1.3 3.3 1 3.5 0.8 3.8 0.5 4.1 0.3 4.3 0 65.3 0 65.5 0.3 65.8 0.5 66 0.8 66.3 1 66.5 1.3 66.8 1.5 67 1.8 67.2 2.1 67.4 2.3 67.6 2.6 67.8 2.8 68 3.1 68.1 3.3 68.3 3.6 68.4 3.9 68.6 4.1 68.7 4.4 68.8 4.6 68.9 4.9 69.1 5.1 69.1 5.4 69.2 5.7 69.3 5.9 69.4 6.2 69.4 6.4 69.5 6.7 69.5 6.9 69.5 7.2 69.6 7.5 69.6 7.7 69.6 8 69.6 8.2 69.5 8.5 69.5 8.7 69.5 9 69.4 9.2 69.4 9.5 69.4 9.8 69.3 10 69.2 10.3 69.1 10.5 69.1 10.8 69 11 68.9 11.3 68.8 11.6 68.7 11.8 68.5 12.1 68.4 12.3 68.3 12.6 68.2 12.8 68 13.1 67.9 13.4 67.7 13.6 67.6 13.9 67.4 14.1 67.3 14.4 67.1 14.6 66.9 14.9 66.8 15.2 66.6 15.4 66.4 15.7 66.2 15.9 66.1 16.2 65.9 16.4 65.7 16.7 65.5 16.9 65.3 17.2 65.1 17.5 64.9 17.7 64.7 18 64.5 18.2 64.3 18.5 64.1 18.7 63.9 19 63.7 19.3 63.5 19.5 63.3 19.8 63.1 20 62.9 20.3 62.7 20.5 62.5 20.8 62.3 21.1 62.1 21.3 61.9 21.6 61.7 21.8 61.5 22.1 61.3 22.3 61.1 22.6 61 22.9 60.8 23.1 60.6 23.4 60.4 23.6 60.2 23.9 60 24.1 59.8 24.4 59.6 24.7 59.5 24.9 59.3 25.2 59.1 25.4 58.9 25.7 58.8 25.9 58.6 26.2 58.4 26.4 58.2 26.7 58.1 27 57.9 27.2 57.7 27.5 57.6 27.7 57.4 28 57.3 28.2 57.1 28.5 57 28.8 56.8 29 56.7 29.3 56.5 29.5 56.4 29.8 56.2 30 56.1 30.3 56 30.6 55.8 30.8 55.7 31.1 55.6 31.3 55.4 31.6 55.3 31.8 55.2 32.1 55.1 32.4 55 32.6 54.8 32.9 54.7 33.1 54.6 33.4 54.5 33.6 54.4 33.9 54.3 34.2 54.2 34.4 54.1 34.7 54 34.9 53.9 35.2 53.8 35.4 53.7 35.7 53.6 35.9 53.5 36.2 53.4 36.5 53.3 36.7 53.3 37 53.2 37.2 53.1 37.5 53 37.7 52.9 38 52.9 38.3 52.8 38.5 52.7 38.8 52.7 39 52.6 39.3 52.5 39.5 52.5 39.8 52.4 40.1 52.3 40.3 52.3 40.6 52.2 40.8 52.2 41.1 52.1 41.3 52.1 41.6 52 41.9 52 42.1 51.9 42.4 51.9 42.6 51.9 42.9 51.8 43.1 51.8 43.4 51.7 43.6 51.7 43.9 51.7 44.2 51.6 44.4 51.6 44.7 51.6 44.9 51.6 45.2 51.5 45.4 51.5 45.7 51.5 46 51.5 46.2 51.4 46.5 51.4 46.7 51.4 47 51.4 47.2 51.4 47.5 51.4 47.8 51.3 48 51.3 48.3 51.3 48.5 51.3 48.8 51.3 49 51.3 49.3 51.3 49.6 51.3 49.8 51.3 50.1 51.3 50.3 51.3 50.6 51.3 50.8 51.3 51.1 51.3 51.4 51.3 51.6 51.3 51.9 51.3 52.1 51.3 52.4 51.3 52.6 51.3 52.9 51.3 53.1 51.3 53.4 51.3 53.7 51.3 53.9 51.3 54.2 51.4 54.4 51.4 54.7 51.4 54.9 51.4 55.2 51.4 55.5 51.4 55.7 51.4 56 51.4 56.2 51.5 56.5 51.5 56.7 51.5 57 51.5 57.3 51.5 57.5 51.5 57.8 51.6 58 51.6 58.3 51.6 58.5 51.6 58.8 51.6 59.1 51.7 59.3 51.7 59.6 51.7 59.8 51.7 60.1 51.8 60.3 51.8 60.6 51.8 60.9 51.8 61.1 51.9 61.4 51.9 61.6 51.9 61.9 52 62.1 52 62.4 52 62.7 52 62.9 52.1 63.2 52.1 63.4 52.2 63.7 52.2 63.9 52.2 64.2 52.3 64.4 52.3 64.7 52.3 65 52.4 65.2 52.4 65.5 52.5 65.7 52.5 66 52.6 66.2 52.6 66.5 52.7 66.8 52.7 67 52.8 67.3 52.8 67.5 52.9 67.8 52.9 68 53 68.3 53 68.6 53.1 68.8 53.2 69.1 53.2 69.3 53.3 69.6 53.3 69.8 53.4 70.1 53.5 70.3 53.5 70.6 53.6 70.9 53.7 71.1 53.7 71.4 53.8 71.6 53.9 71.9 53.9 72.1 54 72.4 54.1 72.7 54.2 72.9 54.2 73.2 54.3 73.4 54.4 73.7 54.5 73.9 54.5 74.2 54.6 74.5 54.7 74.7 54.8 75 54.8 75.2 54.9 75.5 55 75.7 55.1 76 55.2 76.3 55.2 76.5 55.3 76.8 55.4 77 55.5 77.3 55.5 77.5 55.6 77.8 55.7 78.1 55.8 78.3 55.8 78.6 55.9 78.8 56 79.1 56.1 79.3 56.1 79.6 56.2 79.8 56.3 80.1 56.3 80.4 56.4 80.6 56.5 80.9 56.6 81.1 56.6 81.4 56.7 81.6 56.7 81.9 56.8 82.2 56.9 82.4 56.9 82.7 57 82.9 57 83.2 57.1 83.4 57.1 83.7 57.2 84 57.2 84.2 57.3 84.5 57.3 84.7 57.4 85 57.4 85.2 57.5 85.5 57.5 85.8 57.5 86 57.6 86.3 57.6 86.5 57.6 86.8 57.7 87 57.7 87.3 57.7 87.6 57.7 87.8 57.8 88.1 57.8 88.3 57.8 88.6 57.8 88.8 57.8 89.1 57.8 89.4 57.9 89.6 57.9 89.9 57.9 90.1 57.9 90.4 57.9 90.6 57.9 90.9 57.9 91.1 57.9 91.4 57.9 91.7 57.9 91.9 57.9 92.2 57.9 92.4 57.9 92.7 57.9 92.9 57.8 93.2 57.8 93.5 57.8 93.7 57.8 94 57.8 94.2 57.8 94.5 57.7 94.7 57.7 95 57.7 95.3 57.7 95.5 57.6 95.8 57.6 96 57.6 96.3 57.5 96.5 57.5 96.8 57.5 97.1 57.4 97.3 57.4 97.6 57.4 97.8 57.3 98.1 57.3 98.3 57.2 98.6 57.2 98.8 57.1 99.1 57.1 99.4 57 99.6 57 99.9 56.9 100.1 56.9 100.4 56.8 100.6 56.7 100.9 56.7 101.2 56.6 101.4 56.5 101.7 56.5 101.9 56.4 102.2 56.3 102.4 56.2 102.7 56.2 103 56.1 103.2 56 103.5 55.9 103.7 55.8 104 55.7 104.2 55.7 104.5 55.6 104.8 55.5 105 55.4 105.3 55.3 105.5 55.2 105.8 55.1 106 55 106.3 54.9 106.6 54.7 106.8 54.6 107.1 54.5 107.3 54.4 107.6 54.3 107.8 54.2 108.1 54 108.3 53.9 108.6 53.8 108.9 53.6 109.1 53.5 109.4 53.4 109.6 53.2 109.9 53.1 110.1 53 110.4 52.8 110.7 52.7 110.9 52.5 111.2 52.4 111.4 52.2 111.7 52.1 111.9 51.9 112.2 51.7 112.5 51.6 112.7 51.4 113 51.3 113.2 51.1 113.5 50.9 113.7 50.8 114 50.6 114.3 50.4 114.5 50.2 114.8 50.1 115 49.9 115.3 49.7 115.5 49.5 115.8 49.4 116.1 49.2 116.3 49 116.6 48.8 116.8 48.6 117.1 48.5 117.3 48.3 117.6 48.1 117.8 47.9 118.1 47.7 118.4 47.5 118.6 47.4 118.9 47.2 119.1 47 119.4 46.8 119.6 46.6 119.9 46.4 120.2 46.2 120.4 46.1 120.7 45.9 120.9 45.7 121.2 45.5 121.4 45.3 121.7 45.2 122 45 122.2 44.8 122.5 44.6 122.7 44.4 123 44.3 123.2 44.1 123.5 43.9 123.8 43.7 124 43.6 124.3 43.4 124.5 43.2 124.8 43 125 42.9 125.3 42.7 125.6 42.5 125.8 42.4 126.1 42.2 126.3 42.1 126.6 41.9 126.8 41.8 127.1 41.6 127.3 41.4 127.6 41.3 127.9 41.1 128.1 41 128.4 40.8 128.6 40.7 128.9 40.6 129.1 40.4 129.4 40.3 129.7 40.2 129.9 40 130.2 39.9 130.4 39.8 130.7 39.6 130.9 39.5 131.2 30.1 131.2"/></svg>